Ninja Assassin (2009) DVDRip XviD-MAX

Format                           : AVI
Format/Info                      : Audio Video Interleave
File size                        : 902 MiB
Duration                         : 1h 38mn
Overall bit rate                 : 1 279 Kbps
Writing application              : VirtualDubMod 1.5.10.2 (build 2542/release)
Writing library                  : VirtualDubMod build 2542/release
Original source form             : MAX TORRENTZ
Copyright                        : SIGISMUNT

Video
Format                           : xvid
Codec ID                         : xvid
Duration                         : 1h 38mn
Bit rate                         : 1 139 Kbps
Width                            : 720 pixels
Height                           : 304 pixels
Display aspect ratio             : 2.35:1
Frame rate                       : 23.976 fps
Resolution                       : 24 bits
Bits/(Pixel*Frame)               : 0.217
Stream size                      : 803 MiB (89%)

Audio
ID                               : 1
Format                           : MPEG Audio
Format version                   : Version 1
Format profile                   : Layer 3
Codec ID                         : 55
Codec ID/Hint                    : MP3
Duration                         : 1h 38mn
Bit rate mode                    : Constant
Bit rate                         : 128 Kbps
Channel(s)                       : 2 channels
Sampling rate                    : 48.0 KHz
Resolution                       : 16 bits
Stream size                      : 90.3 MiB (10%)
Alignment                        : Aligned on interleaves
Interleave, duration             : 24 ms (0.58 video frame)
Interleave, preload duration     : 24 ms
Writing library                  : LAME3.96.1 
http://www.imdb.com/title/tt1186367/

Screens: 
http://www.postimg.com/image/12000/11604.jpg 
http://www.postimg.com/image/12000/11605.jpg 
http://www.postimg.com/image/12000/11606.jpg 
http://www.postimg.com/image/12000/11607.jpg 
http://www.postimg.com/image/12000/11608.jpg

ScreenCaps: 
http://www.postimg.com/image/12000/11609.jpg

Ninja Assassin (2009) DVDRip XviD-MAX Torrent Free Download 
http://thepiratebay.org/user/extremezone/0/7

How To Get Your Maxspeed (uTorrent)

Torrent Client - Preferences - Bandwidth - Number of connections - Set aprox. 500 for each 
Torrent Client - Preferences - BiTorrent - Protocol Encryption - Forced
Bandwidth Allocation - High (Set download/upload limit - Unlimited)
Stop Other Active Torrents - Start downloading and wait for connections
Enjoy and Seed for at least 1:1 ratio. Also please spread the link where you found this torrent to your friends.